<svg width="38" height="38" viewBox="0 0 38 38" fill="none" xmlns="http://www.w3.org/2000/svg">
<g filter="url(#filter0_d_618:281)">
<path fill-rule="evenodd" clip-rule="evenodd" d="M20.8615 11.3096L23.7235 14.3096C23.7665 14.3546 23.7875 14.4106 23.8205 14.4606C23.8565 14.5146 23.8995 14.5626 23.9245 14.6226C23.9735 14.7436 24.0005 14.8716 24.0005 14.9996C24.0005 15.1306 23.9735 15.2606 23.9235 15.3826C23.8725 15.5046 23.7995 15.6156 23.7065 15.7076L20.7075 18.7066C20.3165 19.0976 19.6835 19.0976 19.2935 18.7066C18.9025 18.3166 18.9025 17.6836 19.2935 17.2926L20.5865 15.9996H15.0005C14.4475 15.9996 14.0005 15.5526 14.0005 14.9996C14.0005 14.4476 14.4475 13.9996 15.0005 13.9996H20.6635L19.4145 12.6906C19.0335 12.2906 19.0475 11.6586 19.4475 11.2766C19.8475 10.8946 20.4805 10.9106 20.8615 11.3096ZM9.00049 14.9996C9.00049 20.5146 13.4865 24.9996 19.0005 24.9996C24.5145 24.9996 29.0005 20.5146 29.0005 14.9996C29.0005 9.4856 24.5145 4.9996 19.0005 4.9996C13.4865 4.9996 9.00049 9.4856 9.00049 14.9996Z" fill="#231F20"/>
<mask id="mask0_618:281" style="mask-type:alpha" maskUnits="userSpaceOnUse" x="9" y="4" width="21" height="21">
<path fill-rule="evenodd" clip-rule="evenodd" d="M20.8615 11.3096L23.7235 14.3096C23.7665 14.3546 23.7875 14.4106 23.8205 14.4606C23.8565 14.5146 23.8995 14.5626 23.9245 14.6226C23.9735 14.7436 24.0005 14.8716 24.0005 14.9996C24.0005 15.1306 23.9735 15.2606 23.9235 15.3826C23.8725 15.5046 23.7995 15.6156 23.7065 15.7076L20.7075 18.7066C20.3165 19.0976 19.6835 19.0976 19.2935 18.7066C18.9025 18.3166 18.9025 17.6836 19.2935 17.2926L20.5865 15.9996H15.0005C14.4475 15.9996 14.0005 15.5526 14.0005 14.9996C14.0005 14.4476 14.4475 13.9996 15.0005 13.9996H20.6635L19.4145 12.6906C19.0335 12.2906 19.0475 11.6586 19.4475 11.2766C19.8475 10.8946 20.4805 10.9106 20.8615 11.3096ZM9.00049 14.9996C9.00049 20.5146 13.4865 24.9996 19.0005 24.9996C24.5145 24.9996 29.0005 20.5146 29.0005 14.9996C29.0005 9.4856 24.5145 4.9996 19.0005 4.9996C13.4865 4.9996 9.00049 9.4856 9.00049 14.9996Z" fill="white"/>
</mask>
<g mask="url(#mask0_618:281)">
<rect x="7" y="3" width="24" height="24" fill="#FF9309"/>
</g>
</g>
<defs>
<filter id="filter0_d_618:281" x="-2" y="-2" width="42" height="42" filterUnits="userSpaceOnUse" color-interpolation-filters="sRGB">
<feFlood flood-opacity="0" result="BackgroundImageFix"/>
<feColorMatrix in="SourceAlpha" type="matrix" values="0 0 0 0 0 0 0 0 0 0 0 0 0 0 0 0 0 0 127 0" result="hardAlpha"/>
<feOffset dy="4"/>
<feGaussianBlur stdDeviation="4.5"/>
<feColorMatrix type="matrix" values="0 0 0 0 0 0 0 0 0 0 0 0 0 0 0 0 0 0 0.16 0"/>
<feBlend mode="normal" in2="BackgroundImageFix" result="effect1_dropShadow_618:281"/>
<feBlend mode="normal" in="SourceGraphic" in2="effect1_dropShadow_618:281" result="shape"/>
</filter>
</defs>
</svg>
