<svg width="114" height="64" viewBox="0 0 114 64" fill="none" xmlns="http://www.w3.org/2000/svg">
<path d="M88.0969 12.6927C86.8975 12.6927 85.6853 12.7815 84.4858 12.9529C78.5076 4.81686 69.0325 0 58.9038 0C43.9645 0 31.0751 10.5413 27.9147 24.903C25.5665 23.9701 23.047 23.4814 20.5085 23.4814C9.48494 23.4814 0.517578 32.4488 0.517578 43.4723C0.517578 54.2421 9.23109 63.165 19.9754 63.4506C20.0452 63.4569 20.1214 63.4633 20.1912 63.4633H88.7315C88.8331 63.4633 88.9346 63.4569 89.0362 63.4379C102.763 62.9429 113.482 51.8495 113.482 38.078C113.482 24.078 102.097 12.6927 88.0969 12.6927ZM62.8195 14.66C62.9464 14.3998 63.1178 14.165 63.3272 13.9619C67.135 15.6754 70.2447 19.7371 71.8313 24.7507C71.0824 24.6936 70.416 24.262 70.0543 23.6083C68.6771 21.0825 66.5448 19.039 63.9618 17.7697C62.7878 17.2239 62.28 15.8341 62.8195 14.66ZM57.6155 52.8649C56.562 52.6936 55.7497 51.8368 55.6481 50.7706C55.3689 48.0163 53.8839 45.5286 51.5865 43.9801C50.368 43.1995 48.9718 42.7362 47.5248 42.6473C46.3825 42.5839 45.3671 41.0607 45.6844 39.8549C45.9065 38.757 46.9156 37.9891 48.0325 38.078C50.0634 38.2493 52.018 38.903 53.7442 39.9819C57.222 42.3427 59.513 46.0934 60.0271 50.2629C60.0525 50.4216 60.0525 50.5802 60.0461 50.7325C59.9636 51.9955 58.8721 52.9474 57.6155 52.8649ZM63.4541 51.913C61.7914 46.2203 58.5865 41.1052 54.1885 37.126C51.8149 35.0571 49.1114 33.4071 46.1921 32.2393C46.154 32.2267 46.1159 32.2076 46.0715 32.1949C44.8721 31.6999 44.3009 30.3291 44.7959 29.1296C45.4305 27.67 46.7633 27.5431 47.9056 28.0508C50.8693 29.2502 53.63 30.9003 56.0924 32.9374C61.2519 37.1831 65.0851 42.825 67.135 49.184C66.0561 50.282 64.8186 51.2022 63.4541 51.913ZM68.912 47.1532C66.3925 40.718 62.6164 34.8477 57.8059 29.8912C55.2166 27.2892 52.3417 24.9918 49.2383 23.0372C48.3625 22.612 47.7977 21.7298 47.7787 20.7525C47.7152 19.4198 49.1749 17.7063 51.0153 18.5947C54.2075 20.5684 57.1839 22.8658 59.9002 25.4488C64.7615 30.1704 68.7216 35.7362 71.5774 41.8858C70.9364 43.7579 70.0353 45.5286 68.912 47.1532ZM72.6563 37.8241C69.6862 32.7217 66.0307 28.0444 61.8041 23.9257C59.3607 21.6791 56.7524 19.6228 53.9981 17.7697H53.8712C52.8557 17.1351 52.6654 15.2312 53.7442 14.2792C54.4677 13.67 55.5022 13.6192 56.2828 14.1523C58.9355 15.8722 61.436 17.8015 63.7714 19.9275C67.2429 23.0816 70.3462 26.6165 73.0371 30.4624C73.0371 31.2239 73.1005 32.4297 73.1005 33.1278C73.1196 34.7017 72.9673 36.282 72.6563 37.8241Z" fill="#FF9309"/>
</svg>
